<svg width="33" height="44" viewBox="0 0 33 44" fill="none" xmlns="http://www.w3.org/2000/svg">
<path d="M23.6733 12.8184L21.3669 12.8127L21.3682 20.9316L21.3666 23.8285L27.1608 23.8108C27.8276 23.8095 28.9753 23.7291 29.5774 23.8314L29.5787 29.7257C28.6179 30.3601 27.6583 31.0105 26.6631 31.5902L26.6336 43.4288C27.3595 42.596 28.2529 41.8763 28.9413 41.0185C29.6349 40.2254 30.4817 39.566 31.1775 38.7649L31.1881 20.9368L29.7876 20.9385C29.2432 18.8512 28.0636 17.117 26.2256 15.9461C25.6142 15.6056 24.5577 15.2756 24.0877 14.8208C23.5643 14.3143 23.6697 13.4832 23.6733 12.8184Z" fill="#FDE574"/>
<path d="M21.2838 35.1914C20.0573 35.3024 18.8383 35.4919 17.6078 35.5594C17.607 36.5815 17.5925 37.606 17.6266 38.6274L21.1274 37.2435L21.2372 37.1709C21.3562 36.5454 21.3138 35.8385 21.3309 35.2001L21.2838 35.1914Z" fill="#FDE574"/>
<path d="M24.8683 35.5228C23.6988 35.4099 22.5046 35.2054 21.3308 35.2001C21.3137 35.8384 21.3561 36.5453 21.2371 37.1709C22.0937 37.9131 23.7851 38.1112 24.8502 38.3592C24.8773 37.4152 24.8644 36.4673 24.8683 35.5228Z" fill="#FDE574"/>
<path d="M23.6733 12.8184L21.3669 12.8127L21.3682 20.9316L26.7067 20.9396C27.7316 20.941 28.7637 20.974 29.7876 20.9385C29.2432 18.8512 28.0635 17.117 26.2256 15.9461C25.6142 15.6056 24.5577 15.2756 24.0877 14.8208C23.5643 14.3143 23.6697 13.4832 23.6733 12.8184Z" fill="#FDE574"/>
<path d="M18.6916 0.00936069C17.437 -0.0125588 16.2099 -0.00807279 14.9644 0.159036C11.4858 0.62578 7.91853 2.25034 5.3805 4.68948C5.19589 4.86693 5.00826 5.05257 4.84413 5.24933C6.18151 6.24093 7.49668 7.28963 8.87251 8.22455L2.94869 7.48027C2.2208 8.6487 1.64675 9.82042 1.05541 11.0609C2.28418 11.5691 3.5241 12.0487 4.77516 12.4995C3.8966 12.6665 3.01982 12.8423 2.14483 13.027C1.556 13.154 0.948845 13.3273 0.35215 13.3985C-0.0299454 15.6691 -0.160103 17.6442 0.26244 19.9279C0.522675 21.3344 0.954897 22.6886 1.393 24.0479C1.63551 24.8004 1.95115 25.5622 2.08407 26.3434C2.33972 27.8461 1.59351 29.4343 0.559835 30.4989C0.608496 30.6049 0.652401 30.7137 0.715061 30.8122C1.19067 30.7544 1.69852 30.7888 2.17802 30.7919C4.29437 30.8054 5.80262 30.7744 7.43367 29.2192C9.02964 27.6975 9.76281 25.7092 9.60732 23.5267C9.55685 22.8186 9.384 22.0963 9.40716 21.3874C9.45893 19.8068 11.101 17.922 12.2293 16.8688C14.0494 15.1699 15.6825 15.2246 18.0058 15.3082C18.3568 15.2465 18.8782 15.0093 19.1264 14.7517C19.6015 14.2586 19.4837 13.4472 19.4724 12.8194C20.1024 12.8009 20.7363 12.8139 21.3668 12.8127L23.6732 12.8184C23.6696 13.4832 23.5642 14.3143 24.0876 14.8207C24.5576 15.2756 25.6141 15.6056 26.2255 15.9461C27.032 14.5543 28.0195 13.2407 28.9313 11.9155C30.0836 10.2408 31.2037 8.53958 32.3694 6.87479C31.4369 5.88363 30.4739 4.93947 29.4 4.09901C29.241 3.97617 29.0802 3.85575 28.9176 3.73774C28.7551 3.61979 28.5908 3.50426 28.4247 3.39114C28.2587 3.27807 28.091 3.16751 27.9216 3.05944C27.7522 2.95138 27.5812 2.84588 27.4086 2.74294C27.2361 2.64 27.0621 2.53966 26.8865 2.44193C26.7109 2.3442 26.5339 2.24912 26.3555 2.15669C26.1771 2.06427 25.9973 1.97453 25.8162 1.88747C25.635 1.80043 25.4526 1.71612 25.269 1.63453C25.0853 1.55295 24.9005 1.47413 24.7145 1.39808C24.5285 1.32203 24.3413 1.24878 24.1531 1.17833C23.9649 1.10789 23.7757 1.04027 23.5854 0.975491C23.3952 0.910713 23.2039 0.848796 23.0118 0.78974C22.8197 0.730685 22.6267 0.674519 22.4329 0.621242C22.2391 0.567961 22.0446 0.517595 21.8493 0.470144C21.6539 0.422694 21.4579 0.378176 21.2612 0.336591C21.0646 0.295013 20.8673 0.256384 20.6695 0.220706C20.6744 1.24607 20.6028 2.61765 20.7077 3.6061C20.0256 2.41399 19.3321 1.22433 18.6916 0.00936069Z" fill="#FDE574"/>
<path d="M21.3677 7.90894C20.7339 7.92245 20.1 7.92702 19.4661 7.92265C19.4767 9.55363 19.4388 11.1894 19.4726 12.8193C20.1025 12.8008 20.7365 12.8139 21.367 12.8127C21.4113 11.1821 21.3697 9.54052 21.3677 7.90894Z" fill="#FDE574"/>
<path d="M23.6578 7.89875C22.8944 7.8957 22.131 7.89913 21.3677 7.90902C21.3697 9.5406 21.4113 11.1822 21.3669 12.8127L23.6733 12.8184C23.6571 11.1786 23.652 9.53867 23.6578 7.89875Z" fill="#FDE574"/>
<path d="M18.0122 27.7118C17.8482 27.7116 17.6731 27.7402 17.519 27.7965C17.2406 27.8979 17.0019 28.1089 16.8836 28.3818C16.8705 28.4114 16.8588 28.4417 16.8488 28.4727C16.8387 28.5036 16.8303 28.5349 16.8235 28.5666C16.8166 28.5984 16.8115 28.6304 16.808 28.6627C16.8045 28.695 16.8027 28.7274 16.8025 28.7599C16.8024 28.7924 16.8039 28.8248 16.8072 28.8571C16.8103 28.8895 16.8152 28.9216 16.8218 28.9534C16.8283 28.9852 16.8364 29.0166 16.8462 29.0476C16.856 29.0786 16.8674 29.109 16.8803 29.1388C17.038 29.5038 17.3473 29.6748 17.7036 29.8062C17.9553 29.8192 18.1852 29.8013 18.4119 29.6804C18.4417 29.6645 18.4705 29.6473 18.4985 29.6287C18.5265 29.6101 18.5535 29.5901 18.5795 29.5687C18.6056 29.5475 18.6305 29.5249 18.6543 29.5011C18.6781 29.4774 18.7006 29.4525 18.722 29.4265C18.7433 29.4005 18.7633 29.3735 18.7819 29.3455C18.8005 29.3175 18.8177 29.2887 18.8335 29.259C18.8493 29.2294 18.8636 29.199 18.8764 29.1679C18.8892 29.1368 18.9004 29.1052 18.91 29.073C18.9943 28.7925 18.9627 28.4789 18.8112 28.2267C18.6246 27.9164 18.3513 27.7942 18.0122 27.7118Z" fill="#FDE574"/>
<path d="M21.383 26.7633C18.7777 26.035 16.1195 25.496 13.5212 24.733C14.6893 25.3115 20.4505 28.2297 21.3459 28.1769L21.3689 28.1457C21.4229 27.6919 21.413 27.2186 21.383 26.7633Z" fill="#FDE574"/>
<path d="M21.3667 12.8127C20.7363 12.8139 20.1023 12.8009 19.4723 12.8193C19.4836 13.4472 19.6015 14.2585 19.1264 14.7516C18.8782 15.0093 18.3567 15.2465 18.0058 15.3082C15.8922 16.1524 14.0907 17.7219 13.1931 19.8391C13.0424 20.1946 12.9297 20.5617 12.8303 20.9342C12.4087 20.9582 11.9869 20.9487 11.5648 20.9436L11.5887 38.5198C12.223 39.3767 12.9056 40.2329 13.6145 41.0306C13.924 41.3586 14.1866 41.7421 14.4663 42.096L15.9268 43.9242L15.9687 31.689C14.9727 31.1048 14.0002 30.4757 13.0242 29.8588L13.0235 23.8204C15.7999 23.841 18.591 23.8855 21.3664 23.8285L21.368 20.9315L21.3667 12.8127Z" fill="#FDE574"/>
<path d="M21.3667 12.8127C20.7363 12.8139 20.1023 12.8009 19.4723 12.8193C19.4836 13.4472 19.6015 14.2585 19.1264 14.7516C18.8782 15.0093 18.3567 15.2465 18.0058 15.3082C15.8922 16.1524 14.0907 17.7219 13.1931 19.8391C13.0424 20.1946 12.9297 20.5617 12.8303 20.9342L21.368 20.9315L21.3667 12.8127Z" fill="#FDE574"/>
<path d="M24.8388 27.708C24.6489 27.7111 24.461 27.7322 24.2817 27.7989C24.0119 27.8993 23.7774 28.109 23.6727 28.3796C23.6611 28.4101 23.651 28.4411 23.6424 28.4726C23.6339 28.5042 23.627 28.536 23.6217 28.5682C23.6163 28.6004 23.6126 28.6328 23.6105 28.6654C23.6084 28.6981 23.608 28.7307 23.6092 28.7633C23.6104 28.7959 23.6132 28.8284 23.6177 28.8607C23.6221 28.8931 23.6282 28.9251 23.6359 28.9568C23.6436 28.9886 23.6528 29.0199 23.6637 29.0507C23.6745 29.0815 23.6869 29.1117 23.7007 29.1413C23.8596 29.4838 24.146 29.655 24.4912 29.7709C24.7185 29.7788 24.9042 29.7786 25.115 29.6858C25.3849 29.5669 25.5959 29.355 25.693 29.0747C25.7865 28.8048 25.7525 28.4989 25.6136 28.2503C25.4396 27.9388 25.173 27.7952 24.8388 27.708Z" fill="#FDE574"/>
<path d="M21.369 28.1458C22.3562 27.9311 23.3356 27.4237 24.2453 26.993C25.0811 26.5935 25.9189 26.1985 26.7589 25.8079C27.4608 25.4817 28.5497 25.0693 29.1584 24.6594C27.3883 25.0778 25.6322 25.6199 23.8816 26.1153C23.0801 26.3421 22.2081 26.6676 21.3832 26.7634C21.4132 27.2187 21.423 27.692 21.369 28.1458Z" fill="#FDE574"/>
</svg>
