<svg width="300" height="52" viewBox="0 0 300 52" fill="none" xmlns="http://www.w3.org/2000/svg">
<path d="M19.2095 0.0450929L178.9 0.0412893L246.443 0.0396615C257.538 0.0472813 268.645 -0.0817131 279.738 0.0886439C286.548 8.7734 293.302 17.5295 300 26.3568C296.662 31.2623 292.967 35.7678 289.378 40.3642C286.383 44.198 283.482 48.1375 280.512 51.9985C272.447 51.6758 264.346 51.8543 256.275 51.8614L216.248 51.8695L81.876 51.8385L41.3285 51.8788C33.8981 51.9006 26.4447 52.1036 19.0173 51.9311C17.6693 51.3873 1.6705 29.3569 0 26.6039C1.27764 24.1367 2.91766 21.9852 4.46877 19.8027L19.2095 0.0450929Z" fill="#C52616"/>
</svg>
